<mxfile host="app.diagrams.net" agent="Mozilla/5.0 (Windows NT 10.0; Win64; x64) AppleWebKit/537.36 (KHTML, like Gecko) Chrome/131.0.0.0 Safari/537.36" version="25.0.3">
  <diagram name="Page-1" id="CL1Q1jpUrHus4peQH1Ae">
    <mxGraphModel dx="2537" dy="878" grid="1" gridSize="10" guides="1" tooltips="1" connect="1" arrows="1" fold="1" page="1" pageScale="1" pageWidth="850" pageHeight="1100" math="0" shadow="0">
      <root>
        <mxCell id="0" />
        <mxCell id="1" parent="0" />
        <mxCell id="qq3fwY_frmGvdw18-6tH-9" style="edgeStyle=orthogonalEdgeStyle;rounded=0;orthogonalLoop=1;jettySize=auto;html=1;entryX=0.5;entryY=0;entryDx=0;entryDy=0;" edge="1" parent="1" source="qq3fwY_frmGvdw18-6tH-1" target="qq3fwY_frmGvdw18-6tH-3">
          <mxGeometry relative="1" as="geometry" />
        </mxCell>
        <mxCell id="qq3fwY_frmGvdw18-6tH-1" value="&lt;font style=&quot;font-size: 24px;&quot;&gt;start&lt;/font&gt;" style="strokeWidth=2;html=1;shape=mxgraph.flowchart.start_1;whiteSpace=wrap;" vertex="1" parent="1">
          <mxGeometry x="-700" y="60" width="100" height="60" as="geometry" />
        </mxCell>
        <mxCell id="qq3fwY_frmGvdw18-6tH-2" value="&lt;font style=&quot;font-size: 24px;&quot;&gt;end&lt;/font&gt;" style="strokeWidth=2;html=1;shape=mxgraph.flowchart.start_1;whiteSpace=wrap;" vertex="1" parent="1">
          <mxGeometry x="-701.25" y="1830" width="100" height="60" as="geometry" />
        </mxCell>
        <mxCell id="qq3fwY_frmGvdw18-6tH-10" style="edgeStyle=orthogonalEdgeStyle;rounded=0;orthogonalLoop=1;jettySize=auto;html=1;entryX=0.5;entryY=0;entryDx=0;entryDy=0;" edge="1" parent="1" source="qq3fwY_frmGvdw18-6tH-3" target="qq3fwY_frmGvdw18-6tH-5">
          <mxGeometry relative="1" as="geometry" />
        </mxCell>
        <mxCell id="qq3fwY_frmGvdw18-6tH-3" value="Employee employees[100]" style="rounded=1;whiteSpace=wrap;html=1;absoluteArcSize=1;arcSize=14;strokeWidth=2;" vertex="1" parent="1">
          <mxGeometry x="-740" y="160" width="180" height="40" as="geometry" />
        </mxCell>
        <mxCell id="qq3fwY_frmGvdw18-6tH-4" value="Employee = {Name, Salary, Tax}" style="strokeWidth=2;html=1;shape=mxgraph.flowchart.start_1;whiteSpace=wrap;" vertex="1" parent="1">
          <mxGeometry x="-358.75" y="60" width="210" height="60" as="geometry" />
        </mxCell>
        <mxCell id="qq3fwY_frmGvdw18-6tH-11" style="edgeStyle=orthogonalEdgeStyle;rounded=0;orthogonalLoop=1;jettySize=auto;html=1;entryX=0.5;entryY=0;entryDx=0;entryDy=0;" edge="1" parent="1" source="qq3fwY_frmGvdw18-6tH-5" target="qq3fwY_frmGvdw18-6tH-8">
          <mxGeometry relative="1" as="geometry" />
        </mxCell>
        <mxCell id="qq3fwY_frmGvdw18-6tH-40" style="edgeStyle=orthogonalEdgeStyle;rounded=0;orthogonalLoop=1;jettySize=auto;html=1;" edge="1" parent="1" source="qq3fwY_frmGvdw18-6tH-5" target="qq3fwY_frmGvdw18-6tH-28">
          <mxGeometry relative="1" as="geometry" />
        </mxCell>
        <mxCell id="qq3fwY_frmGvdw18-6tH-5" value="while (1)" style="rhombus;whiteSpace=wrap;html=1;" vertex="1" parent="1">
          <mxGeometry x="-718.75" y="270" width="137.5" height="50" as="geometry" />
        </mxCell>
        <mxCell id="qq3fwY_frmGvdw18-6tH-7" value="calculateTax(salary)" style="strokeWidth=2;html=1;shape=mxgraph.flowchart.start_1;whiteSpace=wrap;" vertex="1" parent="1">
          <mxGeometry x="160" y="60" width="210" height="60" as="geometry" />
        </mxCell>
        <mxCell id="qq3fwY_frmGvdw18-6tH-13" style="edgeStyle=orthogonalEdgeStyle;rounded=0;orthogonalLoop=1;jettySize=auto;html=1;entryX=0.5;entryY=0;entryDx=0;entryDy=0;" edge="1" parent="1" source="qq3fwY_frmGvdw18-6tH-8" target="qq3fwY_frmGvdw18-6tH-12">
          <mxGeometry relative="1" as="geometry" />
        </mxCell>
        <mxCell id="qq3fwY_frmGvdw18-6tH-16" style="edgeStyle=orthogonalEdgeStyle;rounded=0;orthogonalLoop=1;jettySize=auto;html=1;entryX=0.5;entryY=0;entryDx=0;entryDy=0;" edge="1" parent="1" source="qq3fwY_frmGvdw18-6tH-8" target="qq3fwY_frmGvdw18-6tH-15">
          <mxGeometry relative="1" as="geometry" />
        </mxCell>
        <mxCell id="qq3fwY_frmGvdw18-6tH-8" value="input name" style="shape=parallelogram;perimeter=parallelogramPerimeter;whiteSpace=wrap;html=1;fixedSize=1;" vertex="1" parent="1">
          <mxGeometry x="-517.5" y="360" width="140" height="40" as="geometry" />
        </mxCell>
        <mxCell id="qq3fwY_frmGvdw18-6tH-12" value="if (strcmp(name, &quot;1&quot;) == 0" style="rhombus;whiteSpace=wrap;html=1;" vertex="1" parent="1">
          <mxGeometry x="-372.5" y="420" width="170" height="80" as="geometry" />
        </mxCell>
        <mxCell id="qq3fwY_frmGvdw18-6tH-14" style="edgeStyle=orthogonalEdgeStyle;rounded=0;orthogonalLoop=1;jettySize=auto;html=1;entryX=1;entryY=0.5;entryDx=0;entryDy=0;entryPerimeter=0;exitX=1;exitY=0.5;exitDx=0;exitDy=0;" edge="1" parent="1" source="qq3fwY_frmGvdw18-6tH-12" target="qq3fwY_frmGvdw18-6tH-2">
          <mxGeometry relative="1" as="geometry" />
        </mxCell>
        <mxCell id="qq3fwY_frmGvdw18-6tH-18" style="edgeStyle=orthogonalEdgeStyle;rounded=0;orthogonalLoop=1;jettySize=auto;html=1;entryX=0.5;entryY=0;entryDx=0;entryDy=0;" edge="1" parent="1" source="qq3fwY_frmGvdw18-6tH-15" target="qq3fwY_frmGvdw18-6tH-17">
          <mxGeometry relative="1" as="geometry" />
        </mxCell>
        <mxCell id="qq3fwY_frmGvdw18-6tH-15" value="input salary" style="shape=parallelogram;perimeter=parallelogramPerimeter;whiteSpace=wrap;html=1;fixedSize=1;" vertex="1" parent="1">
          <mxGeometry x="-517.5" y="520" width="140" height="40" as="geometry" />
        </mxCell>
        <mxCell id="qq3fwY_frmGvdw18-6tH-22" style="edgeStyle=orthogonalEdgeStyle;rounded=0;orthogonalLoop=1;jettySize=auto;html=1;entryX=0.5;entryY=0;entryDx=0;entryDy=0;" edge="1" parent="1" source="qq3fwY_frmGvdw18-6tH-17" target="qq3fwY_frmGvdw18-6tH-19">
          <mxGeometry relative="1" as="geometry" />
        </mxCell>
        <mxCell id="qq3fwY_frmGvdw18-6tH-17" value="strcpy(employees[count].Name, name" style="rounded=1;whiteSpace=wrap;html=1;absoluteArcSize=1;arcSize=14;strokeWidth=2;" vertex="1" parent="1">
          <mxGeometry x="-550" y="610" width="205" height="40" as="geometry" />
        </mxCell>
        <mxCell id="qq3fwY_frmGvdw18-6tH-23" style="edgeStyle=orthogonalEdgeStyle;rounded=0;orthogonalLoop=1;jettySize=auto;html=1;entryX=0.5;entryY=0;entryDx=0;entryDy=0;" edge="1" parent="1" source="qq3fwY_frmGvdw18-6tH-19" target="qq3fwY_frmGvdw18-6tH-21">
          <mxGeometry relative="1" as="geometry" />
        </mxCell>
        <mxCell id="qq3fwY_frmGvdw18-6tH-19" value="employees[count].Salary = salary" style="rounded=1;whiteSpace=wrap;html=1;absoluteArcSize=1;arcSize=14;strokeWidth=2;" vertex="1" parent="1">
          <mxGeometry x="-548.75" y="680" width="203.75" height="40" as="geometry" />
        </mxCell>
        <mxCell id="qq3fwY_frmGvdw18-6tH-25" style="edgeStyle=orthogonalEdgeStyle;rounded=0;orthogonalLoop=1;jettySize=auto;html=1;entryX=0.5;entryY=0;entryDx=0;entryDy=0;" edge="1" parent="1" source="qq3fwY_frmGvdw18-6tH-21" target="qq3fwY_frmGvdw18-6tH-24">
          <mxGeometry relative="1" as="geometry" />
        </mxCell>
        <mxCell id="qq3fwY_frmGvdw18-6tH-21" value="employees[count].Tax, = calculateTax(salary)" style="rounded=1;whiteSpace=wrap;html=1;absoluteArcSize=1;arcSize=14;strokeWidth=2;" vertex="1" parent="1">
          <mxGeometry x="-550" y="760" width="205" height="40" as="geometry" />
        </mxCell>
        <mxCell id="qq3fwY_frmGvdw18-6tH-26" style="edgeStyle=orthogonalEdgeStyle;rounded=0;orthogonalLoop=1;jettySize=auto;html=1;entryX=1;entryY=1;entryDx=0;entryDy=0;" edge="1" parent="1" source="qq3fwY_frmGvdw18-6tH-24" target="qq3fwY_frmGvdw18-6tH-5">
          <mxGeometry relative="1" as="geometry" />
        </mxCell>
        <mxCell id="qq3fwY_frmGvdw18-6tH-24" value="count++" style="rounded=1;whiteSpace=wrap;html=1;absoluteArcSize=1;arcSize=14;strokeWidth=2;" vertex="1" parent="1">
          <mxGeometry x="-548.75" y="830" width="205" height="40" as="geometry" />
        </mxCell>
        <mxCell id="qq3fwY_frmGvdw18-6tH-31" style="edgeStyle=orthogonalEdgeStyle;rounded=0;orthogonalLoop=1;jettySize=auto;html=1;entryX=0.5;entryY=0;entryDx=0;entryDy=0;" edge="1" parent="1" source="qq3fwY_frmGvdw18-6tH-27" target="qq3fwY_frmGvdw18-6tH-30">
          <mxGeometry relative="1" as="geometry" />
        </mxCell>
        <mxCell id="qq3fwY_frmGvdw18-6tH-27" value="totalSalaryPerMonth += employee[i].salary" style="rounded=1;whiteSpace=wrap;html=1;absoluteArcSize=1;arcSize=14;strokeWidth=2;" vertex="1" parent="1">
          <mxGeometry x="-580" y="1050" width="205" height="40" as="geometry" />
        </mxCell>
        <mxCell id="qq3fwY_frmGvdw18-6tH-29" style="edgeStyle=orthogonalEdgeStyle;rounded=0;orthogonalLoop=1;jettySize=auto;html=1;entryX=0.5;entryY=0;entryDx=0;entryDy=0;" edge="1" parent="1" source="qq3fwY_frmGvdw18-6tH-28" target="qq3fwY_frmGvdw18-6tH-27">
          <mxGeometry relative="1" as="geometry" />
        </mxCell>
        <mxCell id="qq3fwY_frmGvdw18-6tH-36" style="edgeStyle=orthogonalEdgeStyle;rounded=0;orthogonalLoop=1;jettySize=auto;html=1;entryX=0.5;entryY=0;entryDx=0;entryDy=0;" edge="1" parent="1" source="qq3fwY_frmGvdw18-6tH-28" target="qq3fwY_frmGvdw18-6tH-35">
          <mxGeometry relative="1" as="geometry" />
        </mxCell>
        <mxCell id="qq3fwY_frmGvdw18-6tH-28" value="for (i &amp;lt; count, i++)" style="rhombus;whiteSpace=wrap;html=1;" vertex="1" parent="1">
          <mxGeometry x="-718.75" y="980" width="137.5" height="50" as="geometry" />
        </mxCell>
        <mxCell id="qq3fwY_frmGvdw18-6tH-33" style="edgeStyle=orthogonalEdgeStyle;rounded=0;orthogonalLoop=1;jettySize=auto;html=1;entryX=0.5;entryY=0;entryDx=0;entryDy=0;" edge="1" parent="1" source="qq3fwY_frmGvdw18-6tH-30" target="qq3fwY_frmGvdw18-6tH-32">
          <mxGeometry relative="1" as="geometry" />
        </mxCell>
        <mxCell id="qq3fwY_frmGvdw18-6tH-30" value="totalSalaryPerYear += employee[i].salary * 12" style="rounded=1;whiteSpace=wrap;html=1;absoluteArcSize=1;arcSize=14;strokeWidth=2;" vertex="1" parent="1">
          <mxGeometry x="-580" y="1130" width="205" height="40" as="geometry" />
        </mxCell>
        <mxCell id="qq3fwY_frmGvdw18-6tH-34" style="edgeStyle=orthogonalEdgeStyle;rounded=0;orthogonalLoop=1;jettySize=auto;html=1;entryX=1;entryY=1;entryDx=0;entryDy=0;" edge="1" parent="1" source="qq3fwY_frmGvdw18-6tH-32" target="qq3fwY_frmGvdw18-6tH-28">
          <mxGeometry relative="1" as="geometry" />
        </mxCell>
        <mxCell id="qq3fwY_frmGvdw18-6tH-32" value="totalTax&amp;nbsp; += employees[i].Tax&lt;span style=&quot;white-space: pre;&quot;&gt;&#x9;&lt;/span&gt;" style="rounded=1;whiteSpace=wrap;html=1;absoluteArcSize=1;arcSize=14;strokeWidth=2;" vertex="1" parent="1">
          <mxGeometry x="-580" y="1210" width="205" height="40" as="geometry" />
        </mxCell>
        <mxCell id="qq3fwY_frmGvdw18-6tH-38" style="edgeStyle=orthogonalEdgeStyle;rounded=0;orthogonalLoop=1;jettySize=auto;html=1;" edge="1" parent="1" source="qq3fwY_frmGvdw18-6tH-35" target="qq3fwY_frmGvdw18-6tH-37">
          <mxGeometry relative="1" as="geometry" />
        </mxCell>
        <mxCell id="qq3fwY_frmGvdw18-6tH-43" style="edgeStyle=orthogonalEdgeStyle;rounded=0;orthogonalLoop=1;jettySize=auto;html=1;entryX=0.5;entryY=0;entryDx=0;entryDy=0;" edge="1" parent="1" source="qq3fwY_frmGvdw18-6tH-35" target="qq3fwY_frmGvdw18-6tH-41">
          <mxGeometry relative="1" as="geometry" />
        </mxCell>
        <mxCell id="qq3fwY_frmGvdw18-6tH-35" value="if (employee[i].Tax &amp;gt; highestTaxEmployee.Tax)" style="rhombus;whiteSpace=wrap;html=1;" vertex="1" parent="1">
          <mxGeometry x="-766.25" y="1280" width="232.5" height="80" as="geometry" />
        </mxCell>
        <mxCell id="qq3fwY_frmGvdw18-6tH-39" style="edgeStyle=orthogonalEdgeStyle;rounded=0;orthogonalLoop=1;jettySize=auto;html=1;entryX=1;entryY=1;entryDx=0;entryDy=0;" edge="1" parent="1" source="qq3fwY_frmGvdw18-6tH-37" target="qq3fwY_frmGvdw18-6tH-35">
          <mxGeometry relative="1" as="geometry" />
        </mxCell>
        <mxCell id="qq3fwY_frmGvdw18-6tH-37" value="highestTaxEmployee = employee[i]" style="rounded=1;whiteSpace=wrap;html=1;absoluteArcSize=1;arcSize=14;strokeWidth=2;" vertex="1" parent="1">
          <mxGeometry x="-527" y="1410" width="205" height="40" as="geometry" />
        </mxCell>
        <mxCell id="qq3fwY_frmGvdw18-6tH-44" style="edgeStyle=orthogonalEdgeStyle;rounded=0;orthogonalLoop=1;jettySize=auto;html=1;exitX=0.5;exitY=1;exitDx=0;exitDy=0;entryX=0.5;entryY=0;entryDx=0;entryDy=0;" edge="1" parent="1" source="qq3fwY_frmGvdw18-6tH-41" target="qq3fwY_frmGvdw18-6tH-42">
          <mxGeometry relative="1" as="geometry" />
        </mxCell>
        <mxCell id="qq3fwY_frmGvdw18-6tH-41" value="output totalSalaryPerMonth" style="shape=parallelogram;perimeter=parallelogramPerimeter;whiteSpace=wrap;html=1;fixedSize=1;" vertex="1" parent="1">
          <mxGeometry x="-720" y="1470" width="140" height="40" as="geometry" />
        </mxCell>
        <mxCell id="qq3fwY_frmGvdw18-6tH-46" style="edgeStyle=orthogonalEdgeStyle;rounded=0;orthogonalLoop=1;jettySize=auto;html=1;entryX=0.5;entryY=0;entryDx=0;entryDy=0;" edge="1" parent="1" source="qq3fwY_frmGvdw18-6tH-42" target="qq3fwY_frmGvdw18-6tH-45">
          <mxGeometry relative="1" as="geometry" />
        </mxCell>
        <mxCell id="qq3fwY_frmGvdw18-6tH-42" value="output totalSalaryPerYear" style="shape=parallelogram;perimeter=parallelogramPerimeter;whiteSpace=wrap;html=1;fixedSize=1;" vertex="1" parent="1">
          <mxGeometry x="-735" y="1550" width="170" height="60" as="geometry" />
        </mxCell>
        <mxCell id="qq3fwY_frmGvdw18-6tH-48" style="edgeStyle=orthogonalEdgeStyle;rounded=0;orthogonalLoop=1;jettySize=auto;html=1;entryX=0.5;entryY=0;entryDx=0;entryDy=0;" edge="1" parent="1" source="qq3fwY_frmGvdw18-6tH-45" target="qq3fwY_frmGvdw18-6tH-47">
          <mxGeometry relative="1" as="geometry" />
        </mxCell>
        <mxCell id="qq3fwY_frmGvdw18-6tH-45" value="output totalTax" style="shape=parallelogram;perimeter=parallelogramPerimeter;whiteSpace=wrap;html=1;fixedSize=1;" vertex="1" parent="1">
          <mxGeometry x="-721.25" y="1640" width="140" height="40" as="geometry" />
        </mxCell>
        <mxCell id="qq3fwY_frmGvdw18-6tH-47" value="output highestTaxEmployee.Name,&lt;div&gt;highestTaxEmployee.Tax&lt;/div&gt;" style="shape=parallelogram;perimeter=parallelogramPerimeter;whiteSpace=wrap;html=1;fixedSize=1;" vertex="1" parent="1">
          <mxGeometry x="-742.5" y="1720" width="182.5" height="60" as="geometry" />
        </mxCell>
        <mxCell id="qq3fwY_frmGvdw18-6tH-49" style="edgeStyle=orthogonalEdgeStyle;rounded=0;orthogonalLoop=1;jettySize=auto;html=1;entryX=0.5;entryY=0;entryDx=0;entryDy=0;entryPerimeter=0;" edge="1" parent="1" source="qq3fwY_frmGvdw18-6tH-47" target="qq3fwY_frmGvdw18-6tH-2">
          <mxGeometry relative="1" as="geometry" />
        </mxCell>
        <mxCell id="qq3fwY_frmGvdw18-6tH-50" value="&lt;font style=&quot;font-size: 16px;&quot;&gt;return salary * 12 * 0.07&lt;/font&gt;" style="strokeWidth=2;html=1;shape=mxgraph.flowchart.start_1;whiteSpace=wrap;" vertex="1" parent="1">
          <mxGeometry x="172.5" y="190" width="185" height="50" as="geometry" />
        </mxCell>
        <mxCell id="qq3fwY_frmGvdw18-6tH-51" style="edgeStyle=orthogonalEdgeStyle;rounded=0;orthogonalLoop=1;jettySize=auto;html=1;entryX=0.5;entryY=0;entryDx=0;entryDy=0;entryPerimeter=0;" edge="1" parent="1" source="qq3fwY_frmGvdw18-6tH-7" target="qq3fwY_frmGvdw18-6tH-50">
          <mxGeometry relative="1" as="geometry" />
        </mxCell>
      </root>
    </mxGraphModel>
  </diagram>
</mxfile>
